<svg width="224" height="62" viewBox="0 0 224 62" fill="none" xmlns="http://www.w3.org/2000/svg">
<path d="M0.458984 18.124L29.502 29.8748L27.2482 0C27.2482 0 16.5277 0.534129 17.5023 13.6446C17.5632 13.6446 7.671 7.35642 0.458984 18.124Z" fill="#0BAF4E"/>
<path d="M61.6641 18.124L32.6333 29.8748L34.8749 0C34.8749 0 45.5954 0.534129 44.6208 13.6446C44.5721 13.6446 54.4643 7.35642 61.6641 18.124Z" fill="#0BAF4E"/>
<path d="M9.52289 55.6344L29.5021 31.5622L0.239855 24.7156C0.239855 24.7156 -2.47683 35.0705 10.3757 38.0689C10.3757 38.0325 1.38501 45.5467 9.52289 55.6344Z" fill="#0BAF4E"/>
<path d="M47.5079 59.9803L31.2565 33.2738L15.127 58.5842C15.127 58.5842 24.0567 64.5325 31.086 53.4008C31.086 53.4129 35.2524 64.3383 47.5079 59.9803Z" fill="#0BAF4E"/>
<path d="M52.3811 55.6223L32.4019 31.5622L61.6398 24.7035C61.6398 24.7035 64.3565 35.0583 51.4918 38.0567C51.5161 38.0324 60.5068 45.5467 52.3811 55.6223Z" fill="#0BAF4E"/>
<path d="M75.2593 13.3532H71.4584V28.5516H77.2816V10.2577H80.5709V19.6657H83.0073V10.2577H86.2966V33.99H83.0073V22.3727H80.5709V33.99H77.2816V31.1859H70.9833C70.5808 31.2101 70.1778 31.1478 69.8015 31.0033C69.4253 30.8588 69.0846 30.6354 68.8026 30.3482C68.3599 29.7321 68.1526 28.9788 68.2178 28.2239V10.7554H75.3202L75.2593 13.3532Z" fill="white"/>
<path d="M102.865 10.7554V13.4139H98.5648C98.5078 15.5672 99.1159 17.686 100.307 19.4836C101.267 20.871 102.545 22.0111 104.035 22.8097L102.548 24.9341C101.411 24.3177 100.337 23.5898 99.3445 22.7612C98.3939 21.9927 97.5715 21.0791 96.908 20.0541C96.2502 21.0834 95.4271 21.998 94.4715 22.7612C93.5037 23.57 92.4639 24.2892 91.365 24.9098L90.0249 22.7855C91.5137 22.0137 92.7737 20.8669 93.6796 19.4593C94.786 17.6309 95.34 15.5236 95.2755 13.3896H91.2066V10.7554H102.865ZM95.5557 31.028H108.956V33.6865H95.1903C94.3865 33.7597 93.5829 33.5445 92.9243 33.0796C92.685 32.8074 92.5042 32.4893 92.3932 32.1448C92.2821 31.8003 92.2431 31.4367 92.2787 31.0766V26.0631H95.5679L95.5557 31.028ZM108.762 27.5319H105.472V18.5974H101.818V15.9146H105.472V10.2577H108.762V27.5319Z" fill="white"/>
<path d="M120.859 10.4519V19.0708C120.959 21.506 121.712 23.87 123.039 25.9174C123.962 27.5431 125.106 29.0342 126.438 30.3482L124.392 32.242C121.752 30.0836 119.944 27.0809 119.275 23.7445C118.875 25.5713 118.122 27.3031 117.058 28.843C116.207 30.1091 115.177 31.2458 114 32.2177L112.246 30.3482C113.553 29.099 114.644 27.6428 115.474 26.0388C116.753 23.9301 117.473 21.5327 117.569 19.0708V10.4519H120.859ZM131.567 10.2577V33.99H128.278V10.2577H131.567Z" fill="white"/>
<path d="M147.903 10.7554V23.7202H139.473C139.097 23.75 138.719 23.7017 138.362 23.5784C138.006 23.4551 137.679 23.2595 137.402 23.004C136.922 22.4457 136.682 21.7221 136.732 20.9888V10.7554H147.903ZM141.118 31.028H154.519V33.6865H140.74C139.937 33.7555 139.135 33.5406 138.474 33.0796C138.237 32.8059 138.058 32.4876 137.947 32.1435C137.836 31.7994 137.796 31.4365 137.829 31.0766V26.0631H141.118V31.028ZM140.009 13.4139V21.1588H144.639V13.4139H140.009ZM154.336 10.2577V27.3134H151.059V10.3184L154.336 10.2577Z" fill="white"/>
<path d="M163.522 12.1393V10.1363H166.811V12.1393H171.257V14.7978H166.811C166.753 16.6338 167.273 18.4418 168.297 19.9691C169.245 21.2977 170.574 22.3091 172.11 22.8704L170.636 24.922C169.407 24.3936 168.278 23.6586 167.298 22.749C166.374 21.9595 165.623 20.9883 165.093 19.8963C164.549 21.0034 163.777 21.9837 162.827 22.7733C161.823 23.681 160.675 24.4154 159.428 24.9462L158.21 22.8704C159.675 22.2719 160.941 21.2749 161.865 19.9934C162.957 18.4838 163.522 16.6584 163.473 14.7978H159.026V12.1393H163.522ZM163.899 30.9916H177.3V33.6501H163.522C162.718 33.7233 161.914 33.5081 161.256 33.0432C161.016 32.771 160.835 32.4529 160.724 32.1083C160.613 31.7638 160.574 31.4003 160.61 31.0402V26.0631H163.899V30.9916ZM177.105 27.5805H173.816V19.6899H170.076V17.0557H173.816V10.282H177.105V27.5805Z" fill="white"/>
<path d="M200.8 24.5821H193.417V28.4545H190.14V24.5821H181.515V21.8508H200.776L200.8 24.5821ZM199.704 10.7554V19.5079H185.34C184.967 19.5349 184.592 19.484 184.24 19.3586C183.888 19.2332 183.565 19.036 183.294 18.7795C182.81 18.2188 182.569 17.4898 182.624 16.7522V10.7554H199.704ZM185.913 31.0281H199.704V33.6866H185.535C184.732 33.7555 183.93 33.5406 183.269 33.0796C183.033 32.8059 182.853 32.4876 182.742 32.1435C182.631 31.7994 182.591 31.4366 182.624 31.0766V26.5001H185.913V31.0281ZM185.913 13.4139V16.8494H196.414V13.4139H185.913Z" fill="white"/>
<path d="M211.971 13.3532H208.158V28.5516H213.993V10.2577H217.283V19.6657H219.719V10.2577H223.008V33.99H219.719V22.3727H217.283V33.99H213.993V31.1859H207.695C207.296 31.2163 206.895 31.1617 206.519 31.0257C206.143 30.8896 205.801 30.6752 205.514 30.3968C205.039 29.776 204.809 29.0026 204.869 28.2239V10.7554H211.971V13.3532Z" fill="white"/>
<path d="M72.2505 41.2736H75.5276C76.5038 41.187 77.4852 41.3674 78.3661 41.7956C78.6264 42.0226 78.8277 42.3089 78.9528 42.6302C79.078 42.9515 79.1233 43.2982 79.0848 43.6408V49.844C79.1255 50.2336 79.0788 50.6273 78.9482 50.9968C78.8176 51.3663 78.6063 51.7023 78.3295 51.9805C77.4753 52.4754 76.4871 52.6919 75.5032 52.5996H72.2505V41.2736ZM74.0657 51.1064C74.9428 51.1064 75.5398 51.1064 75.8565 51.1064C76.1873 51.0868 76.5107 51 76.8067 50.8515C76.908 50.7814 76.9937 50.6914 77.0587 50.587C77.1236 50.4826 77.1664 50.3661 77.1844 50.2446C77.2524 49.8436 77.2809 49.4371 77.2697 49.0306V44.3206C77.2796 43.9987 77.2509 43.6767 77.1844 43.3616C77.156 43.2569 77.1069 43.159 77.0399 43.0735C76.973 42.988 76.8895 42.9167 76.7945 42.8639C76.4874 42.7458 76.1613 42.6841 75.8321 42.6818H74.0657V51.1064Z" fill="white" fill-opacity="0.8"/>
<path d="M85.7486 41.2736L88.0511 52.6117H86.1993L85.6146 49.7104H83.1781L82.6055 52.6117H80.6929L82.9954 41.2736H85.7486ZM83.4461 48.1445H85.2735L84.3598 43.2887L83.4461 48.1445Z" fill="white" fill-opacity="0.8"/>
<path d="M89.501 41.2736H94.5201V42.7546H91.3649V46.0444H94.3374V47.4647H91.3649V51.1065H94.642V52.6117H89.5253L89.501 41.2736Z" fill="white" fill-opacity="0.8"/>
<path d="M99.3807 41.2736V50.4752C99.4079 50.9893 99.3075 51.5021 99.0883 51.9683C98.9643 52.1761 98.7846 52.3452 98.5694 52.4568C98.3542 52.5683 98.112 52.6178 97.8701 52.5996H95.9209V51.0943H96.7493C97.1026 51.0943 97.3219 50.9972 97.4193 50.8151C97.5047 50.5237 97.5377 50.2196 97.5168 49.9168V41.2736H99.3807Z" fill="white" fill-opacity="0.8"/>
<path d="M101.306 41.2736H106.325V42.7546H103.145V46.0444H106.13V47.4647H103.145V51.1065H106.422V52.6117H101.306V41.2736Z" fill="white" fill-opacity="0.8"/>
<path d="M114.78 48.9578C114.821 49.8338 114.64 50.7061 114.256 51.4949C113.899 51.9143 113.455 52.2513 112.954 52.4825C112.453 52.7136 111.908 52.8333 111.356 52.8333C110.804 52.8333 110.259 52.7136 109.759 52.4825C109.258 52.2513 108.814 51.9143 108.457 51.4949C108.065 50.7088 107.889 49.8336 107.945 48.9578V44.7697C107.886 43.9288 108.063 43.0881 108.457 42.3419C108.776 41.8833 109.215 41.52 109.726 41.2912C110.236 41.0623 110.8 40.9765 111.356 41.043C111.912 40.9818 112.474 41.07 112.984 41.2984C113.494 41.5269 113.933 41.8871 114.256 42.3419C114.639 43.0922 114.819 43.9289 114.78 44.7697V48.9578ZM112.952 44.1628C112.968 43.7607 112.833 43.3671 112.574 43.0581C112.426 42.8823 112.239 42.7435 112.028 42.6529C111.816 42.5622 111.586 42.5222 111.356 42.5361C111.125 42.527 110.894 42.5717 110.683 42.6665C110.471 42.7612 110.285 42.9036 110.138 43.0824C109.901 43.3924 109.777 43.7732 109.785 44.1628V49.4798C109.779 49.9087 109.898 50.3301 110.126 50.6937C110.273 50.892 110.465 51.0532 110.686 51.1642C110.907 51.2753 111.151 51.3331 111.399 51.3331C111.646 51.3331 111.891 51.2753 112.112 51.1642C112.333 51.0532 112.525 50.892 112.672 50.6937C112.884 50.2988 112.985 49.8543 112.964 49.4069L112.952 44.1628Z" fill="white" fill-opacity="0.8"/>
<path d="M123.1 41.2736V52.6117H120.481L118.3 43.9928V52.6117H116.46V41.2736H118.897L121.199 49.9047V41.2736H123.1Z" fill="white" fill-opacity="0.8"/>
<path d="M136.671 48.9578C136.712 49.8339 136.532 50.7062 136.147 51.4949C135.791 51.9144 135.346 52.2514 134.846 52.4825C134.345 52.7136 133.8 52.8334 133.248 52.8334C132.696 52.8334 132.151 52.7136 131.65 52.4825C131.15 52.2514 130.705 51.9144 130.349 51.4949C129.957 50.7088 129.781 49.8336 129.837 48.9578V44.7698C129.79 43.9297 129.966 43.0921 130.349 42.3419C130.712 41.9332 131.158 41.6059 131.658 41.3818C132.158 41.1577 132.7 41.0418 133.248 41.0418C133.796 41.0418 134.338 41.1577 134.838 41.3818C135.338 41.6059 135.784 41.9332 136.147 42.3419C136.539 43.0893 136.72 43.9282 136.671 44.7698V48.9578ZM134.856 44.1628C134.866 43.7615 134.732 43.3699 134.478 43.0581C134.329 42.8845 134.141 42.7472 133.93 42.6568C133.719 42.5663 133.49 42.5251 133.26 42.5361C133.028 42.5252 132.797 42.5689 132.585 42.6638C132.374 42.7588 132.187 42.9022 132.042 43.0824C131.8 43.3895 131.674 43.7723 131.689 44.1628V49.4798C131.677 49.9094 131.796 50.3325 132.03 50.6937C132.16 50.8965 132.34 51.0624 132.554 51.1751C132.767 51.2878 133.007 51.3436 133.248 51.3371C133.49 51.3461 133.73 51.2913 133.944 51.1784C134.158 51.0654 134.338 50.8982 134.466 50.6937C134.685 50.3011 134.791 49.8557 134.771 49.407L134.856 44.1628Z" fill="white" fill-opacity="0.8"/>
<path d="M138.499 41.2736H142.153C142.995 41.1826 143.844 41.3477 144.59 41.7471C144.814 41.9849 144.983 42.2693 145.085 42.58C145.186 42.8906 145.216 43.2198 145.175 43.5437V44.4906C145.217 44.9705 145.115 45.4523 144.882 45.8744C144.55 46.2016 144.125 46.4179 143.664 46.4935C144.208 46.5633 144.704 46.8368 145.053 47.2583C145.351 47.7507 145.487 48.3237 145.443 48.8971V49.9654C145.496 50.3553 145.462 50.752 145.344 51.1275C145.226 51.5031 145.027 51.8481 144.76 52.1383C144.012 52.5286 143.165 52.6932 142.324 52.6118H138.559L138.499 41.2736ZM140.326 45.9351H140.886H141.739C142.029 45.9473 142.319 45.927 142.604 45.8744C142.786 45.8498 142.953 45.7642 143.079 45.6317C143.187 45.4586 143.253 45.2635 143.274 45.0611C143.274 44.8669 143.274 44.527 143.274 44.0657C143.288 43.7941 143.251 43.5224 143.164 43.2645C143.135 43.1726 143.086 43.0881 143.021 43.0169C142.956 42.9456 142.876 42.8893 142.787 42.8518C142.518 42.7502 142.234 42.6967 141.946 42.6939C141.703 42.6939 141.215 42.6939 140.496 42.6939H140.277L140.326 45.9351ZM140.326 51.1429H140.825H142.239C142.515 51.1367 142.788 51.079 143.043 50.973C143.137 50.9329 143.222 50.8732 143.291 50.7978C143.36 50.7225 143.413 50.6332 143.445 50.5359C143.52 50.2717 143.553 49.9972 143.542 49.7226V48.5572C143.552 48.2947 143.519 48.0323 143.445 47.7803C143.355 47.5989 143.197 47.4595 143.006 47.3919C142.698 47.3001 142.378 47.2511 142.056 47.2462C141.776 47.2462 141.227 47.2462 140.399 47.2462H140.326V51.1429Z" fill="white" fill-opacity="0.8"/>
<path d="M153.739 44.6848H151.863V43.7015C151.897 43.5235 151.885 43.3396 151.828 43.1676C151.771 42.9955 151.67 42.8411 151.535 42.7191C151.401 42.5972 151.237 42.5118 151.059 42.4713C150.882 42.4307 150.697 42.4363 150.523 42.4875C150.306 42.4609 150.087 42.4783 149.877 42.5388C149.668 42.5993 149.473 42.7017 149.304 42.8396C149.13 43.1366 149.054 43.4803 149.085 43.8229C149.069 43.9965 149.069 44.1712 149.085 44.3449C149.12 44.4911 149.186 44.6279 149.28 44.7455C149.432 44.9045 149.604 45.0433 149.792 45.1582C149.987 45.2796 150.291 45.4738 150.73 45.7166L151.327 46.0444C151.936 46.3843 152.35 46.6392 152.545 46.797C152.846 46.9911 153.117 47.2283 153.349 47.5011C153.562 47.7679 153.712 48.0791 153.788 48.4115C153.886 48.862 153.931 49.3224 153.922 49.7833C153.96 50.2072 153.91 50.6345 153.774 51.038C153.637 51.4414 153.418 51.812 153.13 52.1262C152.343 52.6266 151.432 52.8994 150.498 52.9145C149.565 52.9295 148.645 52.686 147.843 52.2111C147.621 51.9732 147.452 51.6912 147.347 51.3837C147.242 51.0762 147.203 50.7501 147.233 50.4267V48.8243H149.085V50.0382C149.053 50.3846 149.129 50.7326 149.304 51.0336C149.467 51.1818 149.661 51.2923 149.871 51.3574C150.082 51.4224 150.304 51.4404 150.523 51.4099C150.744 51.4283 150.967 51.4 151.177 51.3268C151.387 51.2536 151.579 51.1371 151.741 50.9851C151.956 50.704 152.06 50.3541 152.033 50.0018C152.055 49.5242 151.913 49.0534 151.631 48.6665C151.046 48.0683 150.367 47.5682 149.621 47.1855C148.931 46.8174 148.292 46.3603 147.721 45.8259C147.3 45.2686 147.092 44.5798 147.136 43.8836C147.106 43.4898 147.161 43.0942 147.297 42.7234C147.434 42.3527 147.649 42.0156 147.928 41.7349C148.622 41.2024 149.491 40.947 150.364 41.0187C151.234 40.9654 152.104 41.1237 152.898 41.48C153.129 41.5886 153.324 41.7605 153.46 41.9755C153.596 42.1905 153.667 42.4398 153.666 42.6939L153.739 44.6848Z" fill="white" fill-opacity="0.8"/>
<path d="M155.761 41.2736H160.805V42.7546H157.625V46.0444H160.61V47.4647H157.625V51.1065H160.914V52.6117H155.798L155.761 41.2736Z" fill="white" fill-opacity="0.8"/>
<path d="M162.608 41.2736H165.41C166.329 41.2272 167.25 41.3464 168.127 41.6257C168.422 41.7342 168.675 41.9342 168.848 42.1963C169.021 42.4585 169.106 42.769 169.089 43.0824V44.6241C169.125 45.0958 169.037 45.5687 168.833 45.9958C168.664 46.1971 168.456 46.363 168.222 46.4838C167.987 46.6046 167.732 46.6781 167.469 46.6999C167.801 46.8233 168.113 46.9951 168.395 47.2098C168.606 47.3627 168.774 47.5677 168.882 47.8046C168.987 48.03 169.049 48.2728 169.065 48.5208C169.081 48.816 169.081 49.1118 169.065 49.407V52.6118H167.213V48.5572C167.234 48.3514 167.234 48.144 167.213 47.9381C167.168 47.7702 167.058 47.6264 166.908 47.5375C166.648 47.4168 166.367 47.3467 166.08 47.3312C165.54 47.3032 164.999 47.3073 164.46 47.3433V52.6603H162.632L162.608 41.2736ZM164.46 45.8866H166.116C166.37 45.8812 166.623 45.8527 166.872 45.8016C166.937 45.7822 166.998 45.7495 167.051 45.7057C167.103 45.6618 167.146 45.6077 167.176 45.5467C167.234 45.3915 167.259 45.2262 167.249 45.0611V43.5437C167.264 43.3693 167.235 43.194 167.164 43.0338C167.13 42.9701 167.081 42.915 167.022 42.8729C166.963 42.8309 166.895 42.8028 166.823 42.7911C166.557 42.7206 166.282 42.6879 166.007 42.6939H164.46V45.8866Z" fill="white" fill-opacity="0.8"/>
<path d="M178.36 41.2736L176.021 52.6117H172.987L170.648 41.2736H172.512L174.474 50.9851L174.62 50.2567C174.9 48.9214 175.095 47.9381 175.229 47.2826C175.461 46.1536 175.68 45.1096 175.863 44.1628L176.435 41.2858L178.36 41.2736Z" fill="white" fill-opacity="0.8"/>
<path d="M184.548 41.2736L186.851 52.6117H185.011L184.414 49.7104H181.978L181.405 52.6117H179.542L181.856 41.2736H184.548ZM182.246 48.1566H184.11L183.184 43.3009L182.246 48.1566Z" fill="white" fill-opacity="0.8"/>
<path d="M194.246 41.2736V42.7303H191.809V52.5996H189.933V42.7303H187.862V41.2736H194.246Z" fill="white" fill-opacity="0.8"/>
<path d="M202.335 48.9578C202.376 49.8339 202.196 50.7062 201.811 51.4949C201.454 51.9144 201.01 52.2514 200.509 52.4825C200.009 52.7136 199.463 52.8334 198.912 52.8334C198.36 52.8334 197.815 52.7136 197.314 52.4825C196.813 52.2514 196.369 51.9144 196.012 51.4949C195.621 50.7088 195.444 49.8336 195.5 48.9578V44.7698C195.453 43.9297 195.63 43.0921 196.012 42.3419C196.376 41.9332 196.822 41.6059 197.322 41.3818C197.822 41.1577 198.364 41.0418 198.912 41.0418C199.46 41.0418 200.002 41.1577 200.501 41.3818C201.001 41.6059 201.448 41.9332 201.811 42.3419C202.202 43.0893 202.383 43.9282 202.335 44.7698V48.9578ZM200.52 44.1628C200.53 43.7615 200.396 43.3699 200.142 43.0581C199.992 42.8845 199.805 42.7472 199.593 42.6568C199.382 42.5663 199.153 42.5251 198.924 42.5361C198.692 42.5252 198.461 42.5689 198.249 42.6638C198.037 42.7588 197.851 42.9022 197.706 43.0824C197.463 43.3895 197.338 43.7723 197.352 44.1628V49.4798C197.341 49.9094 197.46 50.3325 197.693 50.6937C197.824 50.8965 198.004 51.0624 198.218 51.1751C198.431 51.2878 198.67 51.3436 198.912 51.3371C199.153 51.3461 199.393 51.2913 199.607 51.1784C199.821 51.0654 200.001 50.8982 200.13 50.6937C200.349 50.3011 200.454 49.8557 200.434 49.407L200.52 44.1628Z" fill="white" fill-opacity="0.8"/>
<path d="M204.125 41.2736H206.94C207.859 41.2272 208.779 41.3464 209.656 41.6257C209.952 41.7342 210.205 41.9342 210.378 42.1963C210.551 42.4585 210.636 42.769 210.619 43.0824V44.6241C210.655 45.0958 210.567 45.5687 210.363 45.9958C210.193 46.1971 209.985 46.363 209.751 46.4838C209.517 46.6046 209.261 46.6781 208.998 46.6999C209.331 46.8233 209.643 46.9951 209.924 47.2098C210.132 47.3661 210.3 47.5702 210.412 47.8046C210.517 48.03 210.579 48.2728 210.594 48.5208C210.611 48.816 210.611 49.1118 210.594 49.407V52.6118H208.743V48.5572C208.752 48.349 208.731 48.1406 208.682 47.9381C208.664 47.8546 208.629 47.7758 208.578 47.7068C208.528 47.6377 208.464 47.5801 208.389 47.5375C208.129 47.4168 207.848 47.3467 207.561 47.3312C207.023 47.2752 206.482 47.2509 205.941 47.2583V52.5753H204.101L204.125 41.2736ZM205.965 45.8987H207.622C207.872 45.8944 208.121 45.8659 208.365 45.8138C208.433 45.7958 208.496 45.7638 208.551 45.7199C208.605 45.676 208.65 45.6211 208.682 45.5588C208.739 45.4036 208.764 45.2384 208.755 45.0733V43.5437C208.763 43.3696 208.734 43.1957 208.669 43.0338C208.635 42.9701 208.586 42.915 208.527 42.8729C208.468 42.8309 208.4 42.8028 208.328 42.7911C208.062 42.7206 207.787 42.6879 207.512 42.6939H205.965V45.8987Z" fill="white" fill-opacity="0.8"/>
<path d="M218.927 41.2736L216.32 48.5572V52.5753H214.493V48.5572L211.971 41.2736H213.859C214.038 41.8887 214.245 42.6049 214.481 43.4223L215.029 45.3767L215.407 46.712L217.051 41.2736H218.927Z" fill="white" fill-opacity="0.8"/>
</svg>
